# xmcd
#
# Track frame offsets:
# 150
# 20047
# 41610
# 60252
# 79570
# 97635
# 120440
# 144092
# 167887
# 185197
# 203142
# 221635
#
# Disc length: 3193 seconds
#
#
# Revision: 0
# Processed by: cddbd v1.5.1PL2 Copyright (c) Steve Scherf et al.
# Submitted via: FreeRIP 2.944 
#
DISCID=990c770c
DTITLE=Bülent Serttaþ - Tükendi Dost Sohbetleri
DYEAR=2005
DGENRE=Other
TTITLE0=Duran Aðabey
TTITLE1=Deli Kýz
TTITLE2=Ver Gelsin
TTITLE3=Týk Dedi
TTITLE4=Sekiz Olur Uyanmaz
TTITLE5=Yeþil Yaprak
TTITLE6=Tükendi Dost Sohbetleri
TTITLE7=Lay Lay Lom
TTITLE8=Paparazzi
TTITLE9=Eskici
TTITLE10=Diyemdin Mi
TTITLE11=Duran Aðabey (remix)
EXTD=
EXTT0=
EXTT1=
EXTT2=
EXTT3=
EXTT4=
EXTT5=
EXTT6=
EXTT7=
EXTT8=
EXTT9=
EXTT10=
EXTT11=
PLAYORDER=
